<svg width="20" height="20" viewBox="0 0 20 20" fill="none" xmlns="http://www.w3.org/2000/svg">
  <path d="M19.0446 10.2068C19.0446 9.4779 18.9882 8.94181 18.8658 8.38428H10.2046V11.8415H15.2253C15.1313 12.7536 14.5737 14.1499 13.3179 15.0997L13.2998 15.214L16.0516 17.3579L16.2449 17.3768C17.979 15.7707 19.0446 13.2296 19.0446 10.2068Z" fill="#4285F4"/>
  <path d="M10.2042 19.088C12.7545 19.088 14.881 18.2676 16.2445 17.3769L13.3175 15.0997C12.551 15.6287 11.5231 15.9989 10.2042 15.9989C7.73433 15.9989 5.64347 14.4023 4.90403 12.19L4.7969 12.199L1.93196 14.4259L1.89307 14.5291C3.24479 17.2562 6.45602 19.088 10.2042 19.088Z" fill="#34A853"/>
  <path d="M4.90395 12.1899C4.70908 11.6324 4.59626 11.0368 4.59626 10.4225C4.59626 9.80841 4.70908 9.21281 4.89456 8.65524L4.88997 8.53469L2.00048 6.28271L1.8931 6.3161C1.33557 7.55297 1.02472 8.9399 1.02472 10.4225C1.02472 11.9051 1.33557 13.2921 1.8931 14.529L4.90395 12.1899Z" fill="#FBBC05"/>
  <path d="M10.2042 4.84633C11.86 4.84633 12.9725 5.5857 13.6087 6.17163L16.2069 3.6773C14.8738 2.45987 12.7545 1.75708 10.2042 1.75708C6.45602 1.75708 3.24479 3.58894 1.89307 6.31605L4.89454 8.65519C5.64336 6.44293 7.73422 4.84633 10.2042 4.84633Z" fill="#EB4335"/>
</svg> 